<svg width="512" height="512" viewBox="0 0 512 512" fill="none" xmlns="http://www.w3.org/2000/svg">
<path d="M169.063 344.813C254.164 344.813 323.119 269.86 323.119 177.406C323.119 84.9523 254.164 10 169.063 10C83.9626 10 15.0081 84.9523 15.0081 177.406C15.0081 214.121 25.8957 248.078 44.3378 275.757C41.7456 284.698 37.8942 292.593 33.8206 299.251C30.2655 305.149 26.6363 309.714 23.97 312.853C22.6368 314.375 21.5258 315.612 20.7852 316.372C20.4149 316.753 20.1186 317.038 19.9705 317.133L19.8223 317.324C15.7488 321.223 13.9712 328.072 15.6006 334.254C17.2301 340.437 21.748 344.813 26.8585 344.813C43.0047 344.813 59.299 339.486 72.8529 332.923C79.6669 329.594 86.0365 325.884 91.5913 322.08C114.329 336.537 140.77 344.813 169.063 344.813ZM346.819 177.406C346.819 284.223 273.421 364.692 186.469 374.299C204.466 445.066 264.163 497 334.969 497C363.262 497 389.703 488.725 412.515 474.267C418.07 478.072 424.365 481.781 431.179 485.11C444.733 491.673 461.028 497 477.174 497C482.284 497 486.876 492.72 488.432 486.442C489.987 480.164 488.284 473.316 484.136 469.416L483.988 469.226C483.84 469.036 483.543 468.845 483.173 468.465C482.432 467.704 481.321 466.562 479.988 464.945C477.322 461.807 473.693 457.241 470.138 451.344C466.064 444.686 462.213 436.696 459.62 427.85C478.063 400.266 488.95 366.309 488.95 329.499C488.95 241.23 426.069 168.846 346.301 162.568C346.597 167.419 346.745 172.365 346.745 177.311L346.819 177.406Z" fill="#2B4474" stroke="#FBB001" stroke-width="16"/>
<ellipse cx="169.5" cy="175" rx="117.5" ry="124" fill="#FBB001"/>
</svg>
