<svg width="512" height="512" viewBox="0 0 512 512" fill="none" xmlns="http://www.w3.org/2000/svg">
<path d="M495.664 168.449C498.86 176.828 496.163 186.17 489.271 192.141L446.023 230.086C447.122 238.08 447.721 246.266 447.721 254.548C447.721 262.831 447.122 271.017 446.023 279.01L489.271 316.956C496.163 322.927 498.86 332.269 495.664 340.647C491.269 352.108 485.975 363.087 479.883 373.681L475.188 381.482C468.596 392.076 461.205 402.092 453.115 411.53C447.222 418.464 437.433 420.776 428.644 418.079L373.01 401.032C359.626 410.952 344.844 419.235 329.063 425.495L316.578 480.486C314.58 489.25 307.588 496.185 298.399 497.629C284.616 499.844 270.433 501 255.95 501C241.467 501 227.284 499.844 213.501 497.629C204.312 496.185 197.32 489.25 195.322 480.486L182.837 425.495C167.056 419.235 152.274 410.952 138.89 401.032L83.3561 418.175C74.5666 420.872 64.7783 418.464 58.8854 411.626C50.795 402.188 43.4038 392.172 36.8117 381.578L32.1173 373.777C26.0246 363.183 20.7309 352.204 16.3362 340.744C13.14 332.365 15.8368 323.023 22.7285 317.052L65.9769 279.107C64.8782 271.017 64.2789 262.831 64.2789 254.548C64.2789 246.266 64.8782 238.08 65.9769 230.086L22.7285 192.141C15.8368 186.17 13.14 176.828 16.3362 168.449C20.7309 156.988 26.0246 146.009 32.1173 135.415L36.8117 127.614C43.4038 117.021 50.795 107.004 58.8854 97.5663C64.7783 90.6322 74.5666 88.3208 83.3561 91.0174L138.99 108.064C152.374 98.1442 167.156 89.8617 182.937 83.6017L195.422 28.6099C197.42 19.8459 204.412 12.9117 213.601 11.4671C227.384 9.15569 241.567 8 256.05 8C270.533 8 284.716 9.15569 298.499 11.3708C307.688 12.8154 314.68 19.7496 316.678 28.5136L329.163 83.5054C344.944 89.7654 359.726 98.0479 373.11 107.968L428.744 90.9211C437.533 88.2245 447.322 90.6322 453.215 97.47C461.305 106.908 468.696 116.924 475.288 127.518L479.983 135.319C486.075 145.913 491.369 156.892 495.764 168.353L495.664 168.449ZM256.05 331.594C277.242 331.594 297.566 323.477 312.551 309.028C327.536 294.579 335.955 274.982 335.955 254.548C335.955 234.114 327.536 214.517 312.551 200.068C297.566 185.619 277.242 177.502 256.05 177.502C234.858 177.502 214.534 185.619 199.549 200.068C184.564 214.517 176.145 234.114 176.145 254.548C176.145 274.982 184.564 294.579 199.549 309.028C214.534 323.477 234.858 331.594 256.05 331.594Z" fill="#2B4474" stroke="#FBB001" stroke-width="16"/>
<circle cx="255.999" cy="256" r="36.5714" fill="#FBB001"/>
</svg>
