<svg width="512" height="512" viewBox="0 0 512 512" fill="none" xmlns="http://www.w3.org/2000/svg">
<path d="M239.336 14.9703C248.657 9.67656 260.164 9.67656 269.58 14.9703L432.972 107.705L437.062 109.312V110.163L482.617 136.065C494.601 142.871 500.497 156.862 496.978 170.096C493.46 183.33 481.381 192.595 467.591 192.595H41.4207C27.6303 192.595 15.5518 183.33 12.0329 170.096C8.51397 156.862 14.4105 142.871 26.3939 136.065L71.8546 110.163V109.312L76.0392 107.8L239.336 14.9703ZM64.2464 222.75H131.722C132.275 222.75 132.722 223.198 132.722 223.75V404.25H170.765V223.25C170.765 222.974 170.989 222.75 171.265 222.75H231.633V404.25H277.284V222.75H337.651C337.928 222.75 338.151 222.974 338.151 223.25V404.25H376.194V223.75C376.194 223.198 376.642 222.75 377.194 222.75H437.062V408.315C437.632 408.598 438.203 408.977 438.774 409.355L484.425 439.605C495.552 446.978 500.593 460.78 496.693 473.541C492.794 486.303 480.906 495 467.496 495H41.4207C28.0107 495 16.2176 486.303 12.3182 473.541C8.41887 460.78 13.3644 446.978 24.5869 439.605L70.2378 409.355C70.8084 408.977 71.379 408.693 71.9497 408.315V222.75H64.2464Z" fill="#2B4474" stroke="#FBB001" stroke-width="16"/>
</svg>
