<svg width="512" height="512" viewBox="0 0 512 512" fill="none" xmlns="http://www.w3.org/2000/svg">
<rect x="45" y="128" width="270" height="277" fill="#F59318"/>
<path d="M22.651 15.0853C30.332 11.3602 39.3685 12.6974 45.7844 18.5238L82.2917 51.5717L118.799 18.5238C126.932 11.1692 138.95 11.1692 146.993 18.5238L183.5 51.5717L220.007 18.5238C228.14 11.1692 240.159 11.1692 248.201 18.5238L284.708 51.5717L321.216 18.5238C327.632 12.6974 336.668 11.3602 344.349 15.0853C352.03 18.8103 357 26.929 357 35.9073V479.093C357 488.071 352.03 496.19 344.349 499.915C336.668 503.64 327.632 502.303 321.216 496.476L284.708 463.428L248.201 496.476C240.068 503.831 228.05 503.831 220.007 496.476L183.5 463.428L146.993 496.476C138.86 503.831 126.841 503.831 118.799 496.476L82.2917 463.428L45.7844 496.476C39.3685 502.303 30.332 503.64 22.651 499.915C14.9701 496.19 10 488.071 10 479.093V35.9073C10 26.929 14.9701 18.8103 22.651 15.0853ZM96.75 150.524C88.7979 150.524 82.2917 157.401 82.2917 165.806C82.2917 174.212 88.7979 181.089 96.75 181.089H270.25C278.202 181.089 284.708 174.212 284.708 165.806C284.708 157.401 278.202 150.524 270.25 150.524H96.75ZM82.2917 349.194C82.2917 357.599 88.7979 364.476 96.75 364.476H270.25C278.202 364.476 284.708 357.599 284.708 349.194C284.708 340.788 278.202 333.911 270.25 333.911H96.75C88.7979 333.911 82.2917 340.788 82.2917 349.194ZM96.75 242.218C88.7979 242.218 82.2917 249.095 82.2917 257.5C82.2917 265.905 88.7979 272.782 96.75 272.782H270.25C278.202 272.782 284.708 265.905 284.708 257.5C284.708 249.095 278.202 242.218 270.25 242.218H96.75Z" fill="#2B4474" stroke="#FBB001" stroke-width="16"/>
</svg>
