<svg width="512" height="512" viewBox="0 0 512 512" fill="none" xmlns="http://www.w3.org/2000/svg">
<path d="M26 96.8801V240.075C26 256.358 33.2598 271.97 46.2624 283.464L236.968 452.041C264.056 475.986 307.94 475.986 335.029 452.041L479.683 324.171C506.772 300.226 506.772 261.434 479.683 237.488L288.978 68.9116C275.976 57.4177 258.314 51.0003 239.893 51.0003H78.0105C49.2964 50.9046 26 71.4977 26 96.8801ZM147.358 127.53C156.554 127.53 165.373 130.76 171.876 136.508C178.378 142.256 182.032 150.052 182.032 158.181C182.032 166.31 178.378 174.106 171.876 179.854C165.373 185.602 156.554 188.831 147.358 188.831C138.162 188.831 129.342 185.602 122.84 179.854C116.337 174.106 112.684 166.31 112.684 158.181C112.684 150.052 116.337 142.256 122.84 136.508C129.342 130.76 138.162 127.53 147.358 127.53Z" fill="#2B4474" stroke="#FBB001" stroke-width="16"/>
<ellipse cx="11.6364" cy="10.6667" rx="11.6364" ry="10.6667" transform="matrix(-1 0 0 1 159.273 147)" fill="#FBB001"/>
</svg>
