<svg width="512" height="512" viewBox="0 0 512 512" fill="none" xmlns="http://www.w3.org/2000/svg">
<g clip-path="url(#clip0_193_222)">
<path d="M90.4 144.5C90.4 113.337 100.851 83.4505 119.455 61.415C138.059 39.3794 163.291 27 189.6 27C215.909 27 241.141 39.3794 259.745 61.415C278.349 83.4505 288.8 113.337 288.8 144.5C288.8 175.663 278.349 205.55 259.745 227.585C241.141 249.621 215.909 262 189.6 262C163.291 262 138.059 249.621 119.455 227.585C100.851 205.55 90.4 175.663 90.4 144.5ZM16 469.736C16 379.316 77.845 306.062 154.182 306.062H225.018C301.355 306.062 363.2 379.316 363.2 469.736C363.2 484.791 352.892 497 340.182 497H39.0175C26.3075 497 16 484.791 16 469.736ZM406.6 313.406V254.656H357C346.692 254.656 338.4 244.834 338.4 232.625C338.4 220.416 346.692 210.594 357 210.594H406.6V151.844C406.6 139.635 414.892 129.812 425.2 129.812C435.507 129.812 443.8 139.635 443.8 151.844V210.594H493.4C503.707 210.594 512 220.416 512 232.625C512 244.834 503.707 254.656 493.4 254.656H443.8V313.406C443.8 325.615 435.507 335.438 425.2 335.438C414.892 335.438 406.6 325.615 406.6 313.406Z" fill="#2B4474" stroke="#FBB001" stroke-width="16"/>
</g>
<defs>
<clipPath id="clip0_193_222">
<rect width="512" height="512" fill="white"/>
</clipPath>
</defs>
</svg>
