<svg width="506" height="497" viewBox="0 0 506 497" fill="none" xmlns="http://www.w3.org/2000/svg">
<path d="M188.5 254.5C214.794 254.5 240.012 242.305 258.605 220.598C277.197 198.89 287.643 169.449 287.643 138.75C287.643 108.051 277.197 78.6097 258.605 56.9024C240.012 35.1951 214.794 23 188.5 23C162.206 23 136.988 35.1951 118.395 56.9024C99.8025 78.6097 89.3571 108.051 89.3571 138.75C89.3571 169.449 99.8025 198.89 118.395 220.598C136.988 242.305 162.206 254.5 188.5 254.5ZM153.103 297.906C76.8094 297.906 15 370.069 15 459.142C15 473.973 25.3016 486 38.0042 486H338.996C351.698 486 362 473.973 362 459.142C362 370.069 300.191 297.906 223.897 297.906H153.103Z" fill="#2B4474" stroke="#FBB001" stroke-width="16"/>
<path d="M403.875 181.923C376.633 181.923 354.819 193.246 338.939 206.723C323.16 220.077 312.608 236.077 307.618 247.061C306.505 249.492 306.505 252.2 307.618 254.631C312.608 265.615 323.16 281.615 338.939 294.969C354.819 308.446 376.633 319.769 403.875 319.769C431.117 319.769 452.931 308.446 468.811 294.969C484.59 281.584 495.143 265.615 500.166 254.631C501.279 252.2 501.279 249.492 500.166 247.061C495.143 236.077 484.59 220.077 468.811 206.723C452.931 193.246 431.117 181.923 403.875 181.923ZM355.325 250.846C355.325 239.095 360.44 227.825 369.545 219.516C378.65 211.206 390.999 206.538 403.875 206.538C416.751 206.538 429.1 211.206 438.205 219.516C447.31 227.825 452.425 239.095 452.425 250.846C452.425 262.597 447.31 273.867 438.205 282.176C429.1 290.486 416.751 295.154 403.875 295.154C390.999 295.154 378.65 290.486 369.545 282.176C360.44 273.867 355.325 262.597 355.325 250.846ZM403.875 231.154C403.875 242.015 394.199 250.846 382.297 250.846C379.903 250.846 377.611 250.477 375.453 249.831C373.599 249.277 371.441 250.323 371.508 252.107C371.609 254.231 371.947 256.354 372.587 258.477C377.206 274.231 394.974 283.584 412.236 279.369C429.499 275.154 439.748 258.938 435.129 243.184C431.387 230.415 419.013 221.831 405.257 221.307C403.302 221.246 402.156 223.184 402.762 224.907C403.47 226.877 403.875 228.969 403.875 231.154Z" fill="#FBB001" stroke="#2B4474" stroke-width="10"/>
</svg>
