<svg width="512" height="512" viewBox="0 0 512 512" fill="none" xmlns="http://www.w3.org/2000/svg">
<path d="M85.9948 190.229L416.171 97.7707C417.994 97.2605 419.921 97.245 421.753 97.7258C423.584 98.2066 425.255 99.1664 426.593 100.507C427.931 101.847 428.888 103.519 429.366 105.351C429.844 107.184 429.825 109.11 429.312 110.933L336.875 441.088C336.287 443.212 335.056 445.101 333.351 446.497C331.646 447.893 329.551 448.726 327.353 448.883C325.155 449.04 322.962 448.512 321.077 447.372C319.191 446.232 317.704 444.536 316.821 442.517L247.531 285.035C246.461 282.588 244.512 280.631 242.069 279.552L84.5868 210.261C82.5675 209.38 80.8706 207.896 79.7291 206.011C78.5877 204.127 78.0577 201.935 78.212 199.738C78.3663 197.54 79.1973 195.444 80.5909 193.738C81.9845 192.031 83.8722 190.82 85.9948 190.229Z" fill="#D9D9D9" stroke="#929292" stroke-width="16" stroke-linecap="round" stroke-linejoin="round"/>
</svg>
