<svg width="551" height="512" viewBox="0 0 551 512" fill="none" xmlns="http://www.w3.org/2000/svg">
<path d="M475.776 216.96L441.387 187.84L309.504 76.48C300.047 68.6087 287.803 64.2571 275.115 64.2571C262.426 64.2571 250.183 68.6087 240.725 76.48L109.186 188.48L74.7969 217.6C72.4812 219.786 70.8903 222.547 70.214 225.551C69.5378 228.556 69.8046 231.678 70.9828 234.545C72.161 237.413 74.2008 239.904 76.8588 241.722C79.5168 243.541 82.6808 244.609 85.9734 244.8C90.3286 244.617 94.4465 242.901 97.4938 240L103.168 235.2V400C103.168 412.73 108.603 424.939 118.277 433.941C127.951 442.943 141.071 448 154.752 448H395.477C409.158 448 422.279 442.943 431.953 433.941C441.627 424.939 447.061 412.73 447.061 400V235.84L452.736 240.64C455.889 243.307 459.995 244.79 464.256 244.8C467.723 244.792 471.106 243.808 473.962 241.979C476.817 240.15 479.012 237.56 480.258 234.549C481.503 231.539 481.742 228.248 480.942 225.109C480.143 221.97 478.342 219.13 475.776 216.96Z" fill="#929292"/>
</svg>
