<svg width="512" height="512" viewBox="0 0 512 512" fill="none" xmlns="http://www.w3.org/2000/svg">
<path d="M442.645 256L466.197 215.296C469.028 210.399 469.798 204.578 468.338 199.113C466.877 193.648 463.307 188.987 458.411 186.155L417.664 162.603V115.669C417.664 110.011 415.416 104.585 411.416 100.584C407.415 96.5836 401.989 94.336 396.331 94.336H349.419L325.888 53.6107C323.046 48.7236 318.394 45.1521 312.939 43.6694C310.233 42.9358 307.408 42.7467 304.629 43.1129C301.849 43.4791 299.17 44.3934 296.747 45.8027L256 69.3547L215.253 45.7814C210.354 42.9525 204.531 42.1859 199.066 43.6502C193.601 45.1145 188.941 48.6897 186.112 53.5894L162.56 94.336H115.648C109.99 94.336 104.564 96.5836 100.563 100.584C96.5623 104.585 94.3147 110.011 94.3147 115.669V162.581L53.5681 186.133C51.1367 187.532 49.0057 189.397 47.2974 191.622C45.5892 193.846 44.3373 196.386 43.6137 199.096C42.8901 201.806 42.7092 204.632 43.0812 207.412C43.4532 210.193 44.3708 212.872 45.7814 215.296L69.3334 256L45.7814 296.704C42.9652 301.606 42.2011 307.422 43.6557 312.885C45.1104 318.348 48.6658 323.014 53.5467 325.867L94.2934 349.419V396.331C94.2934 401.989 96.541 407.415 100.542 411.416C104.543 415.416 109.969 417.664 115.627 417.664H162.56L186.112 458.411C188.001 461.639 190.697 464.321 193.937 466.191C197.176 468.061 200.846 469.056 204.587 469.077C208.299 469.077 211.989 468.096 215.275 466.197L255.979 442.645L296.725 466.197C301.624 469.022 307.443 469.789 312.906 468.329C318.369 466.869 323.03 463.302 325.867 458.411L349.397 417.664H396.309C401.967 417.664 407.394 415.416 411.394 411.416C415.395 407.415 417.643 401.989 417.643 396.331V349.419L458.389 325.867C460.816 324.464 462.943 322.597 464.648 320.372C466.354 318.147 467.603 315.607 468.327 312.899C469.05 310.191 469.232 307.366 468.863 304.588C468.494 301.809 467.581 299.13 466.176 296.704L442.645 256ZM202.645 149.12C211.135 149.123 219.276 152.498 225.277 158.503C231.278 164.508 234.648 172.652 234.645 181.141C234.643 189.631 231.267 197.772 225.262 203.773C219.257 209.774 211.114 213.144 202.624 213.141C194.134 213.139 185.993 209.763 179.992 203.758C173.991 197.753 170.621 189.61 170.624 181.12C170.627 172.63 174.002 164.489 180.007 158.488C186.012 152.487 194.156 149.117 202.645 149.12ZM211.444 350.721C210.119 352.488 207.613 352.847 205.846 351.522L178.114 330.741C176.346 329.416 175.987 326.908 177.313 325.14L300.513 160.873C301.838 159.107 304.344 158.748 306.112 160.072L333.843 180.854C335.611 182.179 335.97 184.687 334.644 186.455L211.444 350.721ZM309.312 362.453C305.108 362.452 300.946 361.623 297.063 360.013C293.18 358.403 289.652 356.044 286.68 353.07C283.709 350.097 281.352 346.567 279.745 342.683C278.137 338.799 277.311 334.636 277.312 330.432C277.313 326.228 278.143 322.066 279.753 318.183C281.363 314.3 283.722 310.772 286.695 307.8C289.669 304.829 293.198 302.472 297.083 300.865C300.967 299.257 305.13 298.431 309.333 298.432C317.823 298.435 325.964 301.81 331.965 307.815C337.966 313.82 341.336 321.964 341.333 330.453C341.331 338.943 337.955 347.084 331.95 353.085C325.945 359.086 317.802 362.456 309.312 362.453Z" fill="#929292"/>
</svg>
