<svg width="512" height="512" viewBox="0 0 512 512" fill="none" xmlns="http://www.w3.org/2000/svg">
<path d="M128 89.6C128 86.2052 129.349 82.9495 131.749 80.549C134.149 78.1486 137.405 76.8 140.8 76.8H217.6C220.995 76.8 224.25 78.1486 226.651 80.549C229.051 82.9495 230.4 86.2052 230.4 89.6V166.4C230.4 169.795 229.051 173.051 226.651 175.451C224.25 177.851 220.995 179.2 217.6 179.2H140.8C137.405 179.2 134.149 177.851 131.749 175.451C129.349 173.051 128 169.795 128 166.4V89.6ZM294.4 76.8C291.005 76.8 287.749 78.1486 285.349 80.549C282.949 82.9495 281.6 86.2052 281.6 89.6V166.4C281.6 169.795 282.949 173.051 285.349 175.451C287.749 177.851 291.005 179.2 294.4 179.2H371.2C374.595 179.2 377.85 177.851 380.251 175.451C382.651 173.051 384 169.795 384 166.4V89.6C384 86.2052 382.651 82.9495 380.251 80.549C377.85 78.1486 374.595 76.8 371.2 76.8H294.4ZM307.2 153.6V102.4H358.4V153.6H307.2ZM51.2 307.2C51.2 280.042 61.9885 253.996 81.1922 234.792C100.396 215.589 126.442 204.8 153.6 204.8H358.4C385.558 204.8 411.604 215.589 430.808 234.792C450.011 253.996 460.8 280.042 460.8 307.2C460.8 334.358 450.011 360.404 430.808 379.608C411.604 398.812 385.558 409.6 358.4 409.6H153.6C126.442 409.6 100.396 398.812 81.1922 379.608C61.9885 360.404 51.2 334.358 51.2 307.2ZM179.2 307.2C179.2 300.41 176.503 293.899 171.702 289.098C166.901 284.297 160.389 281.6 153.6 281.6C146.81 281.6 140.299 284.297 135.498 289.098C130.697 293.899 128 300.41 128 307.2C128 313.99 130.697 320.501 135.498 325.302C140.299 330.103 146.81 332.8 153.6 332.8C160.389 332.8 166.901 330.103 171.702 325.302C176.503 320.501 179.2 313.99 179.2 307.2ZM281.6 307.2C281.6 300.41 278.903 293.899 274.102 289.098C269.301 284.297 262.789 281.6 256 281.6C249.21 281.6 242.699 284.297 237.898 289.098C233.097 293.899 230.4 300.41 230.4 307.2C230.4 313.99 233.097 320.501 237.898 325.302C242.699 330.103 249.21 332.8 256 332.8C262.789 332.8 269.301 330.103 274.102 325.302C278.903 320.501 281.6 313.99 281.6 307.2ZM358.4 332.8C365.189 332.8 371.701 330.103 376.502 325.302C381.303 320.501 384 313.99 384 307.2C384 300.41 381.303 293.899 376.502 289.098C371.701 284.297 365.189 281.6 358.4 281.6C351.61 281.6 345.099 284.297 340.298 289.098C335.497 293.899 332.8 300.41 332.8 307.2C332.8 313.99 335.497 320.501 340.298 325.302C345.099 330.103 351.61 332.8 358.4 332.8Z" fill="#929292"/>
</svg>
