<svg width="516" height="512" viewBox="0 0 516 512" fill="none" xmlns="http://www.w3.org/2000/svg">
<path d="M324.596 286.88V302.88C324.596 313.386 322.511 323.789 318.459 333.495C314.407 343.201 308.468 352.02 300.982 359.449C293.495 366.877 284.607 372.77 274.825 376.79C265.043 380.811 254.559 382.88 243.971 382.88H191.404C191.155 391.63 188.5 400.146 183.725 407.507C178.95 414.867 172.238 420.792 164.314 424.64C157.705 427.916 150.416 429.615 143.029 429.6C132.1 429.664 121.472 426.055 112.875 419.36L53.0513 372.8C47.2248 368.313 42.5094 362.564 39.2656 355.992C36.0217 349.419 34.3353 342.198 34.3353 334.88C34.3353 327.562 36.0217 320.341 39.2656 313.768C42.5094 307.196 47.2248 301.447 53.0513 296.96L112.875 250.4C120.083 244.692 128.785 241.147 137.955 240.184C147.126 239.22 156.383 240.877 164.636 244.96C175.626 250.176 184.089 259.494 188.179 270.88H307.988C310.145 270.816 312.294 271.182 314.307 271.957C316.32 272.733 318.155 273.901 319.704 275.393C321.253 276.885 322.484 278.671 323.324 280.644C324.165 282.617 324.597 284.738 324.596 286.88Z" fill="#929292"/>
<path d="M481.654 177.12C481.655 184.437 479.97 191.658 476.728 198.23C473.487 204.802 468.773 210.552 462.949 215.04L403.125 261.6C394.408 268.321 383.688 271.979 372.649 272C365.261 272.015 357.972 270.316 351.364 267.04C340.374 261.824 331.911 252.506 327.821 241.12H207.529C203.252 241.12 199.151 239.434 196.127 236.434C193.103 233.433 191.404 229.363 191.404 225.12V209.12C191.404 187.903 199.898 167.554 215.018 152.551C230.138 137.549 250.646 129.12 272.029 129.12H324.596C324.793 120.175 327.504 111.463 332.426 103.966C337.347 96.4694 344.282 90.4867 352.449 86.6932C360.615 82.8996 369.687 81.4462 378.641 82.497C387.596 83.5478 396.076 87.061 403.125 92.64L462.949 139.2C468.773 143.688 473.487 149.438 476.728 156.01C479.97 162.582 481.655 169.803 481.654 177.12Z" fill="#929292"/>
</svg>
